<svg width="116" height="70" viewBox="0 0 116 70" fill="none" xmlns="http://www.w3.org/2000/svg">
<path d="M116 69.1464H0V70H116V69.1464Z" fill="currentColor"/>
<path d="M33.427 55.3768H39.6394L36.5083 46.9L33.427 55.3768ZM0 40.9756V67.439H116V40.9756H0ZM20.6127 46.9982V61.7537H22.6834V63.8878H16.1675V61.7537H18.0117V46.9982H13.4216V49.939H10.7028V44.9451H28.6466V49.939H25.9278V46.9896L20.6127 46.9982ZM46.8622 63.9049H40.3281V61.7707H42.0047L40.4097 57.4512H32.6703L31.1161 61.7537H33.1869V63.8878H26.6573V61.7537H28.4109L34.6777 44.9451H38.5927L44.8594 61.7537H46.8758L46.8622 63.9049ZM69.4006 47.1006H67.4884V61.7579H69.4006V63.8921H62.8711V61.7579H64.8875V54.9287H53.2467V61.7579H55.2812V63.8921H48.7291V61.7579H50.6413V47.0963H48.7291V44.9622H55.2812V47.0963H53.2648V52.8372H64.8875V47.0963H62.8711V44.9622H69.4006V47.1006ZM88.9711 58.275C88.5254 59.4289 87.8502 60.4922 86.9819 61.4079C86.128 62.3005 85.0885 63.0182 83.9278 63.5165C82.7143 64.0168 81.4051 64.2782 80.0805 64.2848C78.7558 64.2914 77.4437 64.043 76.2247 63.5549C75.0337 63.0467 73.9644 62.3165 73.0812 61.4083C72.1981 60.5001 71.5194 59.4328 71.0863 58.2707C70.6176 57.0383 70.38 55.7384 70.3839 54.4293C70.3756 53.119 70.6165 51.818 71.0953 50.5878C71.5386 49.4328 72.214 48.3692 73.0845 47.4549C73.9401 46.5663 74.9794 45.8517 76.1386 45.3549C77.9532 44.5724 79.9851 44.3542 81.9402 44.7317C83.8953 45.1092 85.6721 46.063 87.0136 47.4549C87.8812 48.3697 88.5535 49.4334 88.9937 50.5878C89.4674 51.8191 89.7052 53.1197 89.6961 54.4293C89.701 55.7404 89.4555 57.0416 88.9711 58.2707V58.275ZM105.089 50.3146H102.37V47.1134H95.188V53.1787H101.228V55.3128H95.188V61.7409H102.37V58.5396H105.089V63.8921H90.6748V61.7579H92.587V47.1092H90.6748V44.9451H105.093L105.089 50.3146ZM84.9202 48.9872C84.2955 48.3319 83.5333 47.8058 82.6817 47.4421C81.8489 47.0814 80.943 46.895 80.0264 46.8957C79.0321 46.8837 78.049 47.0943 77.1581 47.5104C76.3147 47.908 75.5691 48.4678 74.9695 49.1537C74.352 49.8674 73.8789 50.6819 73.5739 51.5567C72.9047 53.5016 72.9238 55.5985 73.6283 57.5323C73.9452 58.3725 74.4348 59.1456 75.0692 59.8073C75.6849 60.425 76.4083 60.939 77.208 61.3268C78.08 61.7457 79.0477 61.9567 80.0264 61.9415C81.0178 61.9538 81.998 61.7431 82.8856 61.3268C83.7272 60.9284 84.4711 60.3687 85.0697 59.6835C85.6859 58.9722 86.1589 58.1606 86.4653 57.289C86.7953 56.362 86.9607 55.39 86.9547 54.4122C86.9563 53.3947 86.7739 52.3843 86.4155 51.4244C86.0952 50.5259 85.5867 49.6972 84.9202 48.9872Z" fill="currentColor"/>
<path d="M116 38.4146H0V39.2683H116V38.4146Z" fill="currentColor"/>
<path d="M69.7812 11.5244L66.1562 16.6463L58 0L49.8438 16.6463L46.2188 11.5244L29.9062 36.7073H86.0938L69.7812 11.5244Z" fill="currentColor"/>
</svg>
